# xmcd
#
# Track frame offsets:
#	150
#	16389
#	30612
#	48121
#	60618
#	71056
#	81991
#	100032
#	117705
#	130780
#	148122
#
# Disc length: 2197 seconds
#
# Revision: 1
# Processed by: cddbd v1.4PL0 Copyright (c) Steve Scherf et al.
# Submitted via: EasyCDDAExtractor 5.1.0
#
DISCID=9808930b
DTITLE=Rodney Hayden - The Real Thing
DYEAR=2001
DGENRE=Country
TTITLE0=The Real Thing
TTITLE1=Black Rose
TTITLE2=Tryin to Find Myself
TTITLE3=Heartaches and Highways
TTITLE4=Mighty Lonesome Sound
TTITLE5=You Don't Talk I Don't Listen
TTITLE6=I Hope That I Don't Fall In Love With You
TTITLE7=I'll Give You Love
TTITLE8=Tears Only Run One Way
TTITLE9=December Rose
TTITLE10=Back In Your Arms
EXTD=
EXTT0=
EXTT1=
EXTT2=
EXTT3=
EXTT4=
EXTT5=
EXTT6=
EXTT7=
EXTT8=
EXTT9=
EXTT10=
PLAYORDER=
